<svg xmlns="http://www.w3.org/2000/svg" viewBox="0 0 1400 900" width="1400" height="900" preserveAspectRatio="xMidYMid slice"><defs><linearGradient id="bgg51" x1="0" y1="0" x2="0.2" y2="1"><stop offset="0" stop-color="rgb(129,89,62)"/><stop offset="0.55" stop-color="#6B4328"/><stop offset="1" stop-color="rgb(79,39,12)"/></linearGradient><radialGradient id="lgg51" cx="28%" cy="18%" r="85%"><stop offset="0" stop-color="#ffffff" stop-opacity="0.26"/><stop offset="0.55" stop-color="#ffffff" stop-opacity="0.05"/><stop offset="1" stop-color="#ffffff" stop-opacity="0"/></radialGradient><radialGradient id="vgg51" cx="50%" cy="50%" r="78%"><stop offset="0.5" stop-color="#000000" stop-opacity="0"/><stop offset="1" stop-color="#000000" stop-opacity="0.5"/></radialGradient></defs><rect width="1400" height="900" fill="url(#bgg51)"/><rect x="0" y="0.0" width="1400" height="113.5" fill="rgb(75,47,25)" opacity="0.75"/><line x1="0" y1="0.0" x2="1400" y2="0.0" stroke="rgb(26,8,0)" stroke-width="2.4" opacity="0.55"/><line x1="61.1" y1="0.0" x2="61.1" y2="112.5" stroke="rgb(26,8,0)" stroke-width="2" opacity="0.45"/><line x1="840.3" y1="0.0" x2="840.3" y2="112.5" stroke="rgb(26,8,0)" stroke-width="2" opacity="0.45"/><line x1="1391.8" y1="0.0" x2="1391.8" y2="112.5" stroke="rgb(26,8,0)" stroke-width="2" opacity="0.45"/><rect x="0" y="112.5" width="1400" height="113.5" fill="rgb(82,52,27)" opacity="0.78"/><line x1="0" y1="112.5" x2="1400" y2="112.5" stroke="rgb(26,8,0)" stroke-width="2.4" opacity="0.55"/><line x1="393.5" y1="112.5" x2="393.5" y2="225.0" stroke="rgb(26,8,0)" stroke-width="2" opacity="0.45"/><line x1="1106.3" y1="112.5" x2="1106.3" y2="225.0" stroke="rgb(26,8,0)" stroke-width="2" opacity="0.45"/><rect x="0" y="225.0" width="1400" height="113.5" fill="rgb(118,76,37)" opacity="0.91"/><line x1="0" y1="225.0" x2="1400" y2="225.0" stroke="rgb(26,8,0)" stroke-width="2.4" opacity="0.55"/><line x1="265.1" y1="225.0" x2="265.1" y2="337.5" stroke="rgb(26,8,0)" stroke-width="2" opacity="0.45"/><rect x="0" y="337.5" width="1400" height="113.5" fill="rgb(102,65,33)" opacity="0.85"/><line x1="0" y1="337.5" x2="1400" y2="337.5" stroke="rgb(26,8,0)" stroke-width="2.4" opacity="0.55"/><line x1="72.1" y1="337.5" x2="72.1" y2="450.0" stroke="rgb(26,8,0)" stroke-width="2" opacity="0.45"/><line x1="618.2" y1="337.5" x2="618.2" y2="450.0" stroke="rgb(26,8,0)" stroke-width="2" opacity="0.45"/><line x1="1254.5" y1="337.5" x2="1254.5" y2="450.0" stroke="rgb(26,8,0)" stroke-width="2" opacity="0.45"/><rect x="0" y="450.0" width="1400" height="113.5" fill="rgb(92,58,30)" opacity="0.81"/><line x1="0" y1="450.0" x2="1400" y2="450.0" stroke="rgb(26,8,0)" stroke-width="2.4" opacity="0.55"/><line x1="80.7" y1="450.0" x2="80.7" y2="562.5" stroke="rgb(26,8,0)" stroke-width="2" opacity="0.45"/><line x1="1177.5" y1="450.0" x2="1177.5" y2="562.5" stroke="rgb(26,8,0)" stroke-width="2" opacity="0.45"/><rect x="0" y="562.5" width="1400" height="113.5" fill="rgb(116,74,36)" opacity="0.90"/><line x1="0" y1="562.5" x2="1400" y2="562.5" stroke="rgb(26,8,0)" stroke-width="2.4" opacity="0.55"/><line x1="323.5" y1="562.5" x2="323.5" y2="675.0" stroke="rgb(26,8,0)" stroke-width="2" opacity="0.45"/><line x1="925.4" y1="562.5" x2="925.4" y2="675.0" stroke="rgb(26,8,0)" stroke-width="2" opacity="0.45"/><rect x="0" y="675.0" width="1400" height="113.5" fill="rgb(96,61,31)" opacity="0.83"/><line x1="0" y1="675.0" x2="1400" y2="675.0" stroke="rgb(26,8,0)" stroke-width="2.4" opacity="0.55"/><line x1="362.9" y1="675.0" x2="362.9" y2="787.5" stroke="rgb(26,8,0)" stroke-width="2" opacity="0.45"/><rect x="0" y="787.5" width="1400" height="113.5" fill="rgb(77,48,25)" opacity="0.75"/><line x1="0" y1="787.5" x2="1400" y2="787.5" stroke="rgb(26,8,0)" stroke-width="2.4" opacity="0.55"/><line x1="247.1" y1="787.5" x2="247.1" y2="900.0" stroke="rgb(26,8,0)" stroke-width="2" opacity="0.45"/><line x1="1388.6" y1="787.5" x2="1388.6" y2="900.0" stroke="rgb(26,8,0)" stroke-width="2" opacity="0.45"/><path d="M -20 85.7 Q 40 84.9 80 85.7 Q 120 91.3 160 85.7 Q 200 79.2 240 85.7 Q 280 86.8 320 85.7 Q 360 88.9 400 85.7 Q 440 82.5 480 85.7 Q 520 80.8 560 85.7 Q 600 83.2 640 85.7 Q 680 84.3 720 85.7 Q 760 92.5 800 85.7 Q 840 86.5 880 85.7 Q 920 86.0 960 85.7 Q 1000 92.9 1040 85.7 Q 1080 79.6 1120 85.7 Q 1160 90.6 1200 85.7 Q 1240 85.0 1280 85.7 Q 1320 94.1 1360 85.7 Q 1400 79.3 1440 85.7 Q 1480 89.4 1520 85.7" fill="none" stroke="rgb(32,14,4)" stroke-width="0.9" opacity="0.14"/><path d="M -20 559.8 Q 40 552.8 80 559.8 Q 120 560.6 160 559.8 Q 200 561.9 240 559.8 Q 280 559.8 320 559.8 Q 360 561.2 400 559.8 Q 440 557.0 480 559.8 Q 520 551.6 560 559.8 Q 600 566.2 640 559.8 Q 680 551.1 720 559.8 Q 760 550.9 800 559.8 Q 840 551.8 880 559.8 Q 920 562.8 960 559.8 Q 1000 556.1 1040 559.8 Q 1080 553.4 1120 559.8 Q 1160 557.1 1200 559.8 Q 1240 556.9 1280 559.8 Q 1320 557.7 1360 559.8 Q 1400 551.6 1440 559.8 Q 1480 552.4 1520 559.8" fill="none" stroke="rgb(32,14,4)" stroke-width="1.0" opacity="0.09"/><path d="M -20 526.4 Q 40 534.2 80 526.4 Q 120 523.4 160 526.4 Q 200 533.2 240 526.4 Q 280 533.2 320 526.4 Q 360 519.7 400 526.4 Q 440 524.0 480 526.4 Q 520 535.3 560 526.4 Q 600 530.0 640 526.4 Q 680 520.2 720 526.4 Q 760 523.1 800 526.4 Q 840 535.1 880 526.4 Q 920 530.2 960 526.4 Q 1000 518.8 1040 526.4 Q 1080 522.1 1120 526.4 Q 1160 517.6 1200 526.4 Q 1240 528.2 1280 526.4 Q 1320 533.2 1360 526.4 Q 1400 525.4 1440 526.4 Q 1480 526.4 1520 526.4" fill="none" stroke="rgb(157,108,61)" stroke-width="1.0" opacity="0.12"/><path d="M -20 360.6 Q 40 353.4 80 360.6 Q 120 359.4 160 360.6 Q 200 367.4 240 360.6 Q 280 360.9 320 360.6 Q 360 358.4 400 360.6 Q 440 356.7 480 360.6 Q 520 361.0 560 360.6 Q 600 358.4 640 360.6 Q 680 354.3 720 360.6 Q 760 369.3 800 360.6 Q 840 357.4 880 360.6 Q 920 368.2 960 360.6 Q 1000 366.0 1040 360.6 Q 1080 354.7 1120 360.6 Q 1160 365.9 1200 360.6 Q 1240 362.0 1280 360.6 Q 1320 363.0 1360 360.6 Q 1400 351.8 1440 360.6 Q 1480 364.2 1520 360.6" fill="none" stroke="rgb(32,14,4)" stroke-width="1.1" opacity="0.10"/><path d="M -20 545.6 Q 40 546.0 80 545.6 Q 120 548.1 160 545.6 Q 200 546.6 240 545.6 Q 280 546.7 320 545.6 Q 360 548.8 400 545.6 Q 440 545.2 480 545.6 Q 520 546.3 560 545.6 Q 600 545.8 640 545.6 Q 680 545.4 720 545.6 Q 760 546.3 800 545.6 Q 840 546.8 880 545.6 Q 920 548.2 960 545.6 Q 1000 546.7 1040 545.6 Q 1080 546.2 1120 545.6 Q 1160 542.9 1200 545.6 Q 1240 547.5 1280 545.6 Q 1320 541.8 1360 545.6 Q 1400 547.3 1440 545.6 Q 1480 546.4 1520 545.6" fill="none" stroke="rgb(157,108,61)" stroke-width="1.3" opacity="0.06"/><path d="M -20 626.0 Q 40 624.1 80 626.0 Q 120 623.0 160 626.0 Q 200 623.6 240 626.0 Q 280 627.9 320 626.0 Q 360 623.9 400 626.0 Q 440 628.9 480 626.0 Q 520 629.3 560 626.0 Q 600 624.4 640 626.0 Q 680 623.6 720 626.0 Q 760 627.2 800 626.0 Q 840 626.0 880 626.0 Q 920 623.3 960 626.0 Q 1000 626.5 1040 626.0 Q 1080 626.0 1120 626.0 Q 1160 622.5 1200 626.0 Q 1240 628.0 1280 626.0 Q 1320 629.6 1360 626.0 Q 1400 628.6 1440 626.0 Q 1480 623.1 1520 626.0" fill="none" stroke="rgb(157,108,61)" stroke-width="2.2" opacity="0.10"/><path d="M -20 703.2 Q 40 706.4 80 703.2 Q 120 702.9 160 703.2 Q 200 700.7 240 703.2 Q 280 697.6 320 703.2 Q 360 704.3 400 703.2 Q 440 708.9 480 703.2 Q 520 701.6 560 703.2 Q 600 703.6 640 703.2 Q 680 699.4 720 703.2 Q 760 697.5 800 703.2 Q 840 700.5 880 703.2 Q 920 708.7 960 703.2 Q 1000 705.0 1040 703.2 Q 1080 701.9 1120 703.2 Q 1160 707.7 1200 703.2 Q 1240 706.7 1280 703.2 Q 1320 702.0 1360 703.2 Q 1400 708.8 1440 703.2 Q 1480 701.2 1520 703.2" fill="none" stroke="rgb(157,108,61)" stroke-width="2.1" opacity="0.06"/><path d="M -20 212.6 Q 40 209.5 80 212.6 Q 120 211.7 160 212.6 Q 200 212.6 240 212.6 Q 280 210.8 320 212.6 Q 360 216.0 400 212.6 Q 440 210.2 480 212.6 Q 520 209.7 560 212.6 Q 600 209.7 640 212.6 Q 680 210.5 720 212.6 Q 760 212.9 800 212.6 Q 840 212.4 880 212.6 Q 920 210.3 960 212.6 Q 1000 211.0 1040 212.6 Q 1080 210.7 1120 212.6 Q 1160 212.2 1200 212.6 Q 1240 214.1 1280 212.6 Q 1320 211.8 1360 212.6 Q 1400 211.2 1440 212.6 Q 1480 215.2 1520 212.6" fill="none" stroke="rgb(157,108,61)" stroke-width="1.1" opacity="0.11"/><path d="M -20 454.2 Q 40 454.5 80 454.2 Q 120 448.1 160 454.2 Q 200 448.5 240 454.2 Q 280 456.7 320 454.2 Q 360 459.7 400 454.2 Q 440 455.8 480 454.2 Q 520 453.3 560 454.2 Q 600 448.0 640 454.2 Q 680 450.2 720 454.2 Q 760 452.5 800 454.2 Q 840 455.1 880 454.2 Q 920 455.8 960 454.2 Q 1000 458.8 1040 454.2 Q 1080 455.7 1120 454.2 Q 1160 454.9 1200 454.2 Q 1240 455.9 1280 454.2 Q 1320 454.3 1360 454.2 Q 1400 458.7 1440 454.2 Q 1480 448.1 1520 454.2" fill="none" stroke="rgb(32,14,4)" stroke-width="1.1" opacity="0.09"/><path d="M -20 471.4 Q 40 468.9 80 471.4 Q 120 469.1 160 471.4 Q 200 467.3 240 471.4 Q 280 475.6 320 471.4 Q 360 472.9 400 471.4 Q 440 465.8 480 471.4 Q 520 467.8 560 471.4 Q 600 466.5 640 471.4 Q 680 466.6 720 471.4 Q 760 468.3 800 471.4 Q 840 474.9 880 471.4 Q 920 466.8 960 471.4 Q 1000 468.8 1040 471.4 Q 1080 466.8 1120 471.4 Q 1160 473.5 1200 471.4 Q 1240 470.8 1280 471.4 Q 1320 473.4 1360 471.4 Q 1400 467.0 1440 471.4 Q 1480 466.7 1520 471.4" fill="none" stroke="rgb(157,108,61)" stroke-width="1.4" opacity="0.06"/><path d="M -20 159.3 Q 40 162.0 80 159.3 Q 120 161.7 160 159.3 Q 200 162.2 240 159.3 Q 280 159.8 320 159.3 Q 360 159.9 400 159.3 Q 440 158.2 480 159.3 Q 520 158.3 560 159.3 Q 600 161.3 640 159.3 Q 680 159.1 720 159.3 Q 760 161.3 800 159.3 Q 840 159.0 880 159.3 Q 920 159.1 960 159.3 Q 1000 157.6 1040 159.3 Q 1080 157.5 1120 159.3 Q 1160 156.7 1200 159.3 Q 1240 160.4 1280 159.3 Q 1320 156.3 1360 159.3 Q 1400 157.8 1440 159.3 Q 1480 157.7 1520 159.3" fill="none" stroke="rgb(157,108,61)" stroke-width="1.9" opacity="0.08"/><path d="M -20 186.4 Q 40 183.3 80 186.4 Q 120 181.9 160 186.4 Q 200 193.7 240 186.4 Q 280 183.9 320 186.4 Q 360 188.9 400 186.4 Q 440 180.7 480 186.4 Q 520 192.8 560 186.4 Q 600 192.9 640 186.4 Q 680 184.6 720 186.4 Q 760 194.2 800 186.4 Q 840 184.8 880 186.4 Q 920 180.1 960 186.4 Q 1000 184.7 1040 186.4 Q 1080 179.9 1120 186.4 Q 1160 181.7 1200 186.4 Q 1240 191.7 1280 186.4 Q 1320 188.0 1360 186.4 Q 1400 186.4 1440 186.4 Q 1480 185.1 1520 186.4" fill="none" stroke="rgb(32,14,4)" stroke-width="1.8" opacity="0.06"/><path d="M -20 2.6 Q 40 8.4 80 2.6 Q 120 -1.7 160 2.6 Q 200 -1.4 240 2.6 Q 280 4.8 320 2.6 Q 360 -3.0 400 2.6 Q 440 11.1 480 2.6 Q 520 10.5 560 2.6 Q 600 2.4 640 2.6 Q 680 12.3 720 2.6 Q 760 0.2 800 2.6 Q 840 -1.9 880 2.6 Q 920 3.7 960 2.6 Q 1000 11.4 1040 2.6 Q 1080 0.5 1120 2.6 Q 1160 2.5 1200 2.6 Q 1240 2.1 1280 2.6 Q 1320 11.5 1360 2.6 Q 1400 -4.7 1440 2.6 Q 1480 5.7 1520 2.6" fill="none" stroke="rgb(157,108,61)" stroke-width="1.9" opacity="0.12"/><path d="M -20 43.2 Q 40 53.4 80 43.2 Q 120 49.2 160 43.2 Q 200 53.4 240 43.2 Q 280 38.3 320 43.2 Q 360 36.4 400 43.2 Q 440 33.3 480 43.2 Q 520 51.1 560 43.2 Q 600 50.2 640 43.2 Q 680 53.3 720 43.2 Q 760 37.8 800 43.2 Q 840 48.1 880 43.2 Q 920 39.3 960 43.2 Q 1000 41.9 1040 43.2 Q 1080 47.9 1120 43.2 Q 1160 46.4 1200 43.2 Q 1240 37.9 1280 43.2 Q 1320 51.7 1360 43.2 Q 1400 42.1 1440 43.2 Q 1480 47.1 1520 43.2" fill="none" stroke="rgb(32,14,4)" stroke-width="2.2" opacity="0.05"/><path d="M -20 323.1 Q 40 322.7 80 323.1 Q 120 321.4 160 323.1 Q 200 323.8 240 323.1 Q 280 329.9 320 323.1 Q 360 325.3 400 323.1 Q 440 327.5 480 323.1 Q 520 318.6 560 323.1 Q 600 318.0 640 323.1 Q 680 316.2 720 323.1 Q 760 313.8 800 323.1 Q 840 329.3 880 323.1 Q 920 328.3 960 323.1 Q 1000 312.8 1040 323.1 Q 1080 315.9 1120 323.1 Q 1160 322.8 1200 323.1 Q 1240 333.1 1280 323.1 Q 1320 328.8 1360 323.1 Q 1400 313.3 1440 323.1 Q 1480 325.7 1520 323.1" fill="none" stroke="rgb(157,108,61)" stroke-width="1.9" opacity="0.05"/><path d="M -20 451.9 Q 40 449.6 80 451.9 Q 120 451.6 160 451.9 Q 200 458.1 240 451.9 Q 280 455.9 320 451.9 Q 360 457.6 400 451.9 Q 440 450.4 480 451.9 Q 520 461.2 560 451.9 Q 600 455.0 640 451.9 Q 680 447.3 720 451.9 Q 760 454.5 800 451.9 Q 840 461.7 880 451.9 Q 920 453.5 960 451.9 Q 1000 451.3 1040 451.9 Q 1080 445.3 1120 451.9 Q 1160 461.8 1200 451.9 Q 1240 459.7 1280 451.9 Q 1320 450.0 1360 451.9 Q 1400 460.2 1440 451.9 Q 1480 441.9 1520 451.9" fill="none" stroke="rgb(32,14,4)" stroke-width="1.4" opacity="0.08"/><path d="M -20 725.3 Q 40 726.8 80 725.3 Q 120 726.8 160 725.3 Q 200 725.2 240 725.3 Q 280 724.2 320 725.3 Q 360 722.3 400 725.3 Q 440 726.2 480 725.3 Q 520 728.3 560 725.3 Q 600 722.4 640 725.3 Q 680 727.7 720 725.3 Q 760 725.5 800 725.3 Q 840 727.7 880 725.3 Q 920 727.0 960 725.3 Q 1000 724.9 1040 725.3 Q 1080 725.0 1120 725.3 Q 1160 722.7 1200 725.3 Q 1240 722.5 1280 725.3 Q 1320 727.0 1360 725.3 Q 1400 724.7 1440 725.3 Q 1480 722.3 1520 725.3" fill="none" stroke="rgb(32,14,4)" stroke-width="1.7" opacity="0.12"/><path d="M -20 236.5 Q 40 234.1 80 236.5 Q 120 242.1 160 236.5 Q 200 235.1 240 236.5 Q 280 228.9 320 236.5 Q 360 242.1 400 236.5 Q 440 236.4 480 236.5 Q 520 245.0 560 236.5 Q 600 239.9 640 236.5 Q 680 242.6 720 236.5 Q 760 244.8 800 236.5 Q 840 229.7 880 236.5 Q 920 243.7 960 236.5 Q 1000 244.6 1040 236.5 Q 1080 234.4 1120 236.5 Q 1160 243.1 1200 236.5 Q 1240 228.7 1280 236.5 Q 1320 237.1 1360 236.5 Q 1400 241.0 1440 236.5 Q 1480 234.7 1520 236.5" fill="none" stroke="rgb(157,108,61)" stroke-width="1.5" opacity="0.12"/><path d="M -20 156.8 Q 40 157.6 80 156.8 Q 120 159.8 160 156.8 Q 200 160.3 240 156.8 Q 280 161.0 320 156.8 Q 360 155.5 400 156.8 Q 440 159.1 480 156.8 Q 520 155.3 560 156.8 Q 600 157.1 640 156.8 Q 680 155.6 720 156.8 Q 760 158.1 800 156.8 Q 840 155.1 880 156.8 Q 920 153.8 960 156.8 Q 1000 158.5 1040 156.8 Q 1080 152.6 1120 156.8 Q 1160 155.7 1200 156.8 Q 1240 159.0 1280 156.8 Q 1320 155.7 1360 156.8 Q 1400 153.5 1440 156.8 Q 1480 154.4 1520 156.8" fill="none" stroke="rgb(157,108,61)" stroke-width="1.4" opacity="0.15"/><path d="M -20 287.1 Q 40 290.6 80 287.1 Q 120 282.3 160 287.1 Q 200 291.6 240 287.1 Q 280 285.3 320 287.1 Q 360 287.2 400 287.1 Q 440 282.0 480 287.1 Q 520 290.2 560 287.1 Q 600 286.3 640 287.1 Q 680 284.4 720 287.1 Q 760 286.2 800 287.1 Q 840 282.4 880 287.1 Q 920 282.4 960 287.1 Q 1000 283.7 1040 287.1 Q 1080 287.5 1120 287.1 Q 1160 283.8 1200 287.1 Q 1240 291.8 1280 287.1 Q 1320 288.1 1360 287.1 Q 1400 287.8 1440 287.1 Q 1480 287.0 1520 287.1" fill="none" stroke="rgb(157,108,61)" stroke-width="1.7" opacity="0.11"/><path d="M -20 696.6 Q 40 701.4 80 696.6 Q 120 695.9 160 696.6 Q 200 693.4 240 696.6 Q 280 702.7 320 696.6 Q 360 691.7 400 696.6 Q 440 697.5 480 696.6 Q 520 690.2 560 696.6 Q 600 695.1 640 696.6 Q 680 698.4 720 696.6 Q 760 701.8 800 696.6 Q 840 693.9 880 696.6 Q 920 690.5 960 696.6 Q 1000 703.0 1040 696.6 Q 1080 700.9 1120 696.6 Q 1160 690.6 1200 696.6 Q 1240 700.6 1280 696.6 Q 1320 691.2 1360 696.6 Q 1400 695.4 1440 696.6 Q 1480 689.9 1520 696.6" fill="none" stroke="rgb(32,14,4)" stroke-width="1.5" opacity="0.07"/><path d="M -20 129.8 Q 40 131.8 80 129.8 Q 120 126.9 160 129.8 Q 200 134.8 240 129.8 Q 280 124.6 320 129.8 Q 360 123.3 400 129.8 Q 440 133.0 480 129.8 Q 520 125.9 560 129.8 Q 600 129.0 640 129.8 Q 680 130.3 720 129.8 Q 760 126.0 800 129.8 Q 840 134.5 880 129.8 Q 920 123.5 960 129.8 Q 1000 134.4 1040 129.8 Q 1080 125.4 1120 129.8 Q 1160 127.9 1200 129.8 Q 1240 134.4 1280 129.8 Q 1320 123.6 1360 129.8 Q 1400 131.1 1440 129.8 Q 1480 127.2 1520 129.8" fill="none" stroke="rgb(157,108,61)" stroke-width="2.4" opacity="0.09"/><path d="M -20 421.0 Q 40 422.8 80 421.0 Q 120 418.5 160 421.0 Q 200 417.7 240 421.0 Q 280 417.1 320 421.0 Q 360 422.5 400 421.0 Q 440 414.0 480 421.0 Q 520 413.3 560 421.0 Q 600 426.8 640 421.0 Q 680 426.8 720 421.0 Q 760 412.3 800 421.0 Q 840 421.4 880 421.0 Q 920 429.9 960 421.0 Q 1000 427.9 1040 421.0 Q 1080 413.2 1120 421.0 Q 1160 427.5 1200 421.0 Q 1240 427.3 1280 421.0 Q 1320 415.0 1360 421.0 Q 1400 415.2 1440 421.0 Q 1480 414.8 1520 421.0" fill="none" stroke="rgb(32,14,4)" stroke-width="2.1" opacity="0.14"/><path d="M -20 278.8 Q 40 269.8 80 278.8 Q 120 285.1 160 278.8 Q 200 270.1 240 278.8 Q 280 277.1 320 278.8 Q 360 285.1 400 278.8 Q 440 276.0 480 278.8 Q 520 278.0 560 278.8 Q 600 287.2 640 278.8 Q 680 279.7 720 278.8 Q 760 276.9 800 278.8 Q 840 276.8 880 278.8 Q 920 271.1 960 278.8 Q 1000 273.2 1040 278.8 Q 1080 278.9 1120 278.8 Q 1160 283.9 1200 278.8 Q 1240 278.0 1280 278.8 Q 1320 284.7 1360 278.8 Q 1400 286.1 1440 278.8 Q 1480 286.9 1520 278.8" fill="none" stroke="rgb(32,14,4)" stroke-width="1.7" opacity="0.15"/><path d="M -20 130.7 Q 40 131.4 80 130.7 Q 120 129.8 160 130.7 Q 200 132.0 240 130.7 Q 280 132.9 320 130.7 Q 360 131.1 400 130.7 Q 440 131.4 480 130.7 Q 520 129.6 560 130.7 Q 600 131.6 640 130.7 Q 680 129.6 720 130.7 Q 760 130.2 800 130.7 Q 840 131.5 880 130.7 Q 920 129.3 960 130.7 Q 1000 128.4 1040 130.7 Q 1080 132.7 1120 130.7 Q 1160 132.6 1200 130.7 Q 1240 128.5 1280 130.7 Q 1320 132.5 1360 130.7 Q 1400 128.2 1440 130.7 Q 1480 128.9 1520 130.7" fill="none" stroke="rgb(32,14,4)" stroke-width="2.1" opacity="0.12"/><path d="M -20 790.5 Q 40 783.5 80 790.5 Q 120 787.8 160 790.5 Q 200 793.8 240 790.5 Q 280 786.2 320 790.5 Q 360 790.5 400 790.5 Q 440 791.8 480 790.5 Q 520 783.8 560 790.5 Q 600 786.9 640 790.5 Q 680 783.5 720 790.5 Q 760 794.3 800 790.5 Q 840 797.1 880 790.5 Q 920 793.8 960 790.5 Q 1000 795.5 1040 790.5 Q 1080 789.5 1120 790.5 Q 1160 789.5 1200 790.5 Q 1240 795.6 1280 790.5 Q 1320 790.3 1360 790.5 Q 1400 786.1 1440 790.5 Q 1480 797.8 1520 790.5" fill="none" stroke="rgb(157,108,61)" stroke-width="0.8" opacity="0.12"/><g opacity="0.22"><ellipse cx="415.3" cy="133.3" rx="15.2" ry="9.1" fill="none" stroke="rgb(24,6,0)" stroke-width="2.4"/><ellipse cx="415.3" cy="133.3" rx="8.4" ry="5.0" fill="rgb(32,14,4)"/></g><line x1="45.7" y1="31.5" x2="190.4" y2="69.8" stroke="#140d08" stroke-width="1.4" opacity="0.41"/><line x1="1074.0" y1="705.5" x2="1157.4" y2="686.3" stroke="#140d08" stroke-width="1.7" opacity="0.17"/><line x1="948.0" y1="698.3" x2="1086.0" y2="635.6" stroke="#140d08" stroke-width="2.0" opacity="0.31"/><line x1="92.9" y1="596.4" x2="178.9" y2="559.8" stroke="#140d08" stroke-width="1.0" opacity="0.36"/><line x1="263.3" y1="617.5" x2="493.9" y2="513.8" stroke="#140d08" stroke-width="2.0" opacity="0.18"/><line x1="1282.9" y1="652.7" x2="1341.7" y2="662.0" stroke="#140d08" stroke-width="0.8" opacity="0.40"/><line x1="1143.9" y1="719.9" x2="1200.2" y2="740.6" stroke="#140d08" stroke-width="2.3" opacity="0.32"/><line x1="91.4" y1="96.7" x2="144.8" y2="107.7" stroke="#140d08" stroke-width="1.6" opacity="0.24"/><line x1="28.7" y1="847.2" x2="290.2" y2="774.4" stroke="#140d08" stroke-width="2.3" opacity="0.15"/><line x1="1370.8" y1="612.0" x2="1524.6" y2="599.7" stroke="#140d08" stroke-width="1.5" opacity="0.40"/><line x1="903.1" y1="823.3" x2="1028.2" y2="877.9" stroke="#140d08" stroke-width="1.3" opacity="0.28"/><line x1="83.9" y1="118.9" x2="230.1" y2="180.3" stroke="#140d08" stroke-width="1.6" opacity="0.27"/><line x1="1030.0" y1="490.6" x2="1114.1" y2="526.1" stroke="#140d08" stroke-width="2.1" opacity="0.42"/><line x1="1361.4" y1="792.4" x2="1465.0" y2="776.1" stroke="#140d08" stroke-width="0.7" opacity="0.38"/><line x1="1378.9" y1="746.1" x2="1426.0" y2="757.6" stroke="#140d08" stroke-width="1.8" opacity="0.35"/><line x1="1215.3" y1="40.6" x2="1336.0" y2="82.8" stroke="#140d08" stroke-width="0.7" opacity="0.20"/><line x1="411.0" y1="38.8" x2="575.1" y2="35.2" stroke="#140d08" stroke-width="2.3" opacity="0.36"/><line x1="1039.0" y1="72.7" x2="1198.7" y2="104.9" stroke="#140d08" stroke-width="0.8" opacity="0.28"/><line x1="374.5" y1="86.4" x2="647.0" y2="69.3" stroke="#140d08" stroke-width="2.0" opacity="0.24"/><line x1="764.4" y1="547.1" x2="910.0" y2="575.9" stroke="#140d08" stroke-width="0.7" opacity="0.34"/><line x1="1053.8" y1="343.1" x2="1290.4" y2="240.7" stroke="#140d08" stroke-width="2.2" opacity="0.29"/><line x1="7.6" y1="799.0" x2="168.5" y2="811.5" stroke="#140d08" stroke-width="2.0" opacity="0.12"/><line x1="424.5" y1="786.3" x2="662.6" y2="899.3" stroke="#140d08" stroke-width="2.4" opacity="0.22"/><line x1="556.8" y1="826.0" x2="693.8" y2="777.0" stroke="#140d08" stroke-width="1.5" opacity="0.27"/><line x1="1150.3" y1="857.0" x2="1410.8" y2="858.1" stroke="#140d08" stroke-width="2.0" opacity="0.15"/><line x1="525.3" y1="152.5" x2="674.8" y2="146.5" stroke="#140d08" stroke-width="2.1" opacity="0.33"/><circle cx="399.2" cy="513.9" r="4.8" fill="#0f0a06" opacity="0.16"/><circle cx="927.0" cy="357.0" r="11.6" fill="#0f0a06" opacity="0.09"/><circle cx="543.8" cy="288.4" r="18.2" fill="#0f0a06" opacity="0.06"/><circle cx="396.5" cy="510.8" r="13.2" fill="#0f0a06" opacity="0.18"/><circle cx="429.6" cy="425.9" r="9.2" fill="#0f0a06" opacity="0.20"/><circle cx="918.3" cy="714.6" r="16.8" fill="#0f0a06" opacity="0.19"/><circle cx="858.4" cy="710.6" r="16.0" fill="#0f0a06" opacity="0.10"/><circle cx="464.5" cy="289.8" r="5.3" fill="#0f0a06" opacity="0.22"/><circle cx="272.1" cy="559.9" r="10.7" fill="#0f0a06" opacity="0.07"/><circle cx="1246.4" cy="110.1" r="17.3" fill="#0f0a06" opacity="0.14"/><circle cx="15.6" cy="235.4" r="11.5" fill="#0f0a06" opacity="0.09"/><circle cx="714.5" cy="381.4" r="4.5" fill="#0f0a06" opacity="0.06"/><circle cx="77.4" cy="109.4" r="14.1" fill="#0f0a06" opacity="0.07"/><circle cx="298.4" cy="804.7" r="9.7" fill="#0f0a06" opacity="0.22"/><rect width="1400" height="900" fill="#1a120b" opacity="0.22"/><rect width="1400" height="900" fill="url(#lgg51)"/><rect width="1400" height="900" fill="url(#vgg51)"/></svg>