<svg xmlns="http://www.w3.org/2000/svg" viewBox="0 0 1000 750" width="1000" height="750" preserveAspectRatio="xMidYMid slice"><defs><linearGradient id="bgg95" x1="0" y1="0" x2="0.2" y2="1"><stop offset="0" stop-color="rgb(114,80,55)"/><stop offset="0.55" stop-color="#5C3A21"/><stop offset="1" stop-color="rgb(64,30,5)"/></linearGradient><radialGradient id="lgg95" cx="28%" cy="18%" r="85%"><stop offset="0" stop-color="#ffffff" stop-opacity="0.26"/><stop offset="0.55" stop-color="#ffffff" stop-opacity="0.05"/><stop offset="1" stop-color="#ffffff" stop-opacity="0"/></radialGradient><radialGradient id="vgg95" cx="50%" cy="50%" r="78%"><stop offset="0.5" stop-color="#000000" stop-opacity="0"/><stop offset="1" stop-color="#000000" stop-opacity="0.5"/></radialGradient></defs><rect width="1000" height="750" fill="url(#bgg95)"/><rect x="0" y="0.0" width="1000" height="84.3" fill="rgb(133,94,51)" opacity="0.84"/><line x1="0" y1="0.0" x2="1000" y2="0.0" stroke="rgb(33,14,2)" stroke-width="2.4" opacity="0.55"/><line x1="418.3" y1="0.0" x2="418.3" y2="83.3" stroke="rgb(33,14,2)" stroke-width="2" opacity="0.45"/><line x1="915.2" y1="0.0" x2="915.2" y2="83.3" stroke="rgb(33,14,2)" stroke-width="2" opacity="0.45"/><rect x="0" y="83.3" width="1000" height="84.3" fill="rgb(108,75,42)" opacity="0.78"/><line x1="0" y1="83.3" x2="1000" y2="83.3" stroke="rgb(33,14,2)" stroke-width="2.4" opacity="0.55"/><line x1="576.7" y1="83.3" x2="576.7" y2="166.7" stroke="rgb(33,14,2)" stroke-width="2" opacity="0.45"/><rect x="0" y="166.7" width="1000" height="84.3" fill="rgb(113,79,44)" opacity="0.79"/><line x1="0" y1="166.7" x2="1000" y2="166.7" stroke="rgb(33,14,2)" stroke-width="2.4" opacity="0.55"/><line x1="430.7" y1="166.7" x2="430.7" y2="250.0" stroke="rgb(33,14,2)" stroke-width="2" opacity="0.45"/><rect x="0" y="250.0" width="1000" height="84.3" fill="rgb(160,114,62)" opacity="0.91"/><line x1="0" y1="250.0" x2="1000" y2="250.0" stroke="rgb(33,14,2)" stroke-width="2.4" opacity="0.55"/><line x1="199.6" y1="250.0" x2="199.6" y2="333.3" stroke="rgb(33,14,2)" stroke-width="2" opacity="0.45"/><rect x="0" y="333.3" width="1000" height="84.3" fill="rgb(111,77,43)" opacity="0.78"/><line x1="0" y1="333.3" x2="1000" y2="333.3" stroke="rgb(33,14,2)" stroke-width="2.4" opacity="0.55"/><line x1="570.8" y1="333.3" x2="570.8" y2="416.7" stroke="rgb(33,14,2)" stroke-width="2" opacity="0.45"/><line x1="935.2" y1="333.3" x2="935.2" y2="416.7" stroke="rgb(33,14,2)" stroke-width="2" opacity="0.45"/><rect x="0" y="416.7" width="1000" height="84.3" fill="rgb(114,80,44)" opacity="0.79"/><line x1="0" y1="416.7" x2="1000" y2="416.7" stroke="rgb(33,14,2)" stroke-width="2.4" opacity="0.55"/><line x1="377.6" y1="416.7" x2="377.6" y2="500.0" stroke="rgb(33,14,2)" stroke-width="2" opacity="0.45"/><rect x="0" y="500.0" width="1000" height="84.3" fill="rgb(133,93,51)" opacity="0.84"/><line x1="0" y1="500.0" x2="1000" y2="500.0" stroke="rgb(33,14,2)" stroke-width="2.4" opacity="0.55"/><line x1="59.3" y1="500.0" x2="59.3" y2="583.3" stroke="rgb(33,14,2)" stroke-width="2" opacity="0.45"/><line x1="766.7" y1="500.0" x2="766.7" y2="583.3" stroke="rgb(33,14,2)" stroke-width="2" opacity="0.45"/><rect x="0" y="583.3" width="1000" height="84.3" fill="rgb(129,91,50)" opacity="0.83"/><line x1="0" y1="583.3" x2="1000" y2="583.3" stroke="rgb(33,14,2)" stroke-width="2.4" opacity="0.55"/><line x1="79.6" y1="583.3" x2="79.6" y2="666.7" stroke="rgb(33,14,2)" stroke-width="2" opacity="0.45"/><line x1="679.3" y1="583.3" x2="679.3" y2="666.7" stroke="rgb(33,14,2)" stroke-width="2" opacity="0.45"/><rect x="0" y="666.7" width="1000" height="84.3" fill="rgb(149,106,57)" opacity="0.88"/><line x1="0" y1="666.7" x2="1000" y2="666.7" stroke="rgb(33,14,2)" stroke-width="2.4" opacity="0.55"/><line x1="140.7" y1="666.7" x2="140.7" y2="750.0" stroke="rgb(33,14,2)" stroke-width="2" opacity="0.45"/><line x1="831.7" y1="666.7" x2="831.7" y2="750.0" stroke="rgb(33,14,2)" stroke-width="2" opacity="0.45"/><path d="M -20 196.6 Q 40 198.0 80 196.6 Q 120 199.3 160 196.6 Q 200 194.5 240 196.6 Q 280 198.2 320 196.6 Q 360 195.2 400 196.6 Q 440 197.9 480 196.6 Q 520 193.2 560 196.6 Q 600 194.5 640 196.6 Q 680 199.6 720 196.6 Q 760 196.7 800 196.6 Q 840 193.8 880 196.6 Q 920 192.7 960 196.6 Q 1000 195.2 1040 196.6 Q 1080 195.7 1120 196.6" fill="none" stroke="rgb(210,156,92)" stroke-width="0.9" opacity="0.10"/><path d="M -20 14.0 Q 40 12.9 80 14.0 Q 120 13.6 160 14.0 Q 200 11.3 240 14.0 Q 280 9.3 320 14.0 Q 360 11.5 400 14.0 Q 440 15.3 480 14.0 Q 520 20.9 560 14.0 Q 600 8.4 640 14.0 Q 680 19.9 720 14.0 Q 760 11.3 800 14.0 Q 840 17.7 880 14.0 Q 920 11.7 960 14.0 Q 1000 11.8 1040 14.0 Q 1080 11.7 1120 14.0" fill="none" stroke="rgb(210,156,92)" stroke-width="2.1" opacity="0.13"/><path d="M -20 387.3 Q 40 380.9 80 387.3 Q 120 389.0 160 387.3 Q 200 387.0 240 387.3 Q 280 381.5 320 387.3 Q 360 390.6 400 387.3 Q 440 396.4 480 387.3 Q 520 377.7 560 387.3 Q 600 385.8 640 387.3 Q 680 380.0 720 387.3 Q 760 392.9 800 387.3 Q 840 386.7 880 387.3 Q 920 384.3 960 387.3 Q 1000 379.7 1040 387.3 Q 1080 377.9 1120 387.3" fill="none" stroke="rgb(210,156,92)" stroke-width="1.4" opacity="0.13"/><path d="M -20 104.6 Q 40 106.2 80 104.6 Q 120 103.3 160 104.6 Q 200 105.8 240 104.6 Q 280 102.5 320 104.6 Q 360 107.9 400 104.6 Q 440 104.9 480 104.6 Q 520 104.5 560 104.6 Q 600 106.8 640 104.6 Q 680 107.6 720 104.6 Q 760 105.4 800 104.6 Q 840 102.1 880 104.6 Q 920 101.8 960 104.6 Q 1000 102.8 1040 104.6 Q 1080 107.1 1120 104.6" fill="none" stroke="rgb(39,20,8)" stroke-width="1.1" opacity="0.14"/><path d="M -20 428.2 Q 40 428.3 80 428.2 Q 120 423.2 160 428.2 Q 200 426.3 240 428.2 Q 280 428.8 320 428.2 Q 360 431.5 400 428.2 Q 440 426.4 480 428.2 Q 520 424.9 560 428.2 Q 600 431.8 640 428.2 Q 680 429.8 720 428.2 Q 760 424.8 800 428.2 Q 840 427.3 880 428.2 Q 920 428.1 960 428.2 Q 1000 433.6 1040 428.2 Q 1080 427.5 1120 428.2" fill="none" stroke="rgb(39,20,8)" stroke-width="2.2" opacity="0.11"/><path d="M -20 575.4 Q 40 580.0 80 575.4 Q 120 574.4 160 575.4 Q 200 582.3 240 575.4 Q 280 580.9 320 575.4 Q 360 572.8 400 575.4 Q 440 576.2 480 575.4 Q 520 567.5 560 575.4 Q 600 569.8 640 575.4 Q 680 575.1 720 575.4 Q 760 582.6 800 575.4 Q 840 581.3 880 575.4 Q 920 582.8 960 575.4 Q 1000 580.8 1040 575.4 Q 1080 577.1 1120 575.4" fill="none" stroke="rgb(39,20,8)" stroke-width="2.1" opacity="0.12"/><path d="M -20 389.8 Q 40 392.5 80 389.8 Q 120 388.1 160 389.8 Q 200 391.2 240 389.8 Q 280 388.5 320 389.8 Q 360 389.4 400 389.8 Q 440 390.2 480 389.8 Q 520 386.0 560 389.8 Q 600 389.3 640 389.8 Q 680 390.4 720 389.8 Q 760 387.0 800 389.8 Q 840 387.7 880 389.8 Q 920 387.1 960 389.8 Q 1000 392.7 1040 389.8 Q 1080 391.4 1120 389.8" fill="none" stroke="rgb(210,156,92)" stroke-width="1.9" opacity="0.13"/><path d="M -20 328.1 Q 40 336.6 80 328.1 Q 120 324.4 160 328.1 Q 200 325.6 240 328.1 Q 280 320.6 320 328.1 Q 360 321.6 400 328.1 Q 440 333.9 480 328.1 Q 520 324.0 560 328.1 Q 600 334.0 640 328.1 Q 680 326.8 720 328.1 Q 760 322.1 800 328.1 Q 840 321.0 880 328.1 Q 920 328.0 960 328.1 Q 1000 323.9 1040 328.1 Q 1080 321.7 1120 328.1" fill="none" stroke="rgb(39,20,8)" stroke-width="0.8" opacity="0.05"/><path d="M -20 261.7 Q 40 261.9 80 261.7 Q 120 265.6 160 261.7 Q 200 264.0 240 261.7 Q 280 254.0 320 261.7 Q 360 262.7 400 261.7 Q 440 258.9 480 261.7 Q 520 261.3 560 261.7 Q 600 256.9 640 261.7 Q 680 269.1 720 261.7 Q 760 270.6 800 261.7 Q 840 258.6 880 261.7 Q 920 262.9 960 261.7 Q 1000 268.3 1040 261.7 Q 1080 259.3 1120 261.7" fill="none" stroke="rgb(39,20,8)" stroke-width="1.6" opacity="0.14"/><path d="M -20 42.9 Q 40 36.9 80 42.9 Q 120 50.3 160 42.9 Q 200 48.9 240 42.9 Q 280 47.9 320 42.9 Q 360 40.8 400 42.9 Q 440 40.7 480 42.9 Q 520 45.5 560 42.9 Q 600 35.5 640 42.9 Q 680 46.1 720 42.9 Q 760 46.0 800 42.9 Q 840 44.5 880 42.9 Q 920 43.5 960 42.9 Q 1000 46.6 1040 42.9 Q 1080 46.2 1120 42.9" fill="none" stroke="rgb(210,156,92)" stroke-width="1.9" opacity="0.12"/><path d="M -20 422.6 Q 40 424.3 80 422.6 Q 120 419.7 160 422.6 Q 200 420.4 240 422.6 Q 280 425.6 320 422.6 Q 360 424.3 400 422.6 Q 440 422.9 480 422.6 Q 520 422.1 560 422.6 Q 600 423.5 640 422.6 Q 680 425.7 720 422.6 Q 760 419.5 800 422.6 Q 840 419.5 880 422.6 Q 920 421.9 960 422.6 Q 1000 422.7 1040 422.6 Q 1080 423.6 1120 422.6" fill="none" stroke="rgb(210,156,92)" stroke-width="1.0" opacity="0.11"/><path d="M -20 574.6 Q 40 570.0 80 574.6 Q 120 570.3 160 574.6 Q 200 576.5 240 574.6 Q 280 575.8 320 574.6 Q 360 573.0 400 574.6 Q 440 578.3 480 574.6 Q 520 566.9 560 574.6 Q 600 573.1 640 574.6 Q 680 581.9 720 574.6 Q 760 580.8 800 574.6 Q 840 579.3 880 574.6 Q 920 573.9 960 574.6 Q 1000 576.3 1040 574.6 Q 1080 574.9 1120 574.6" fill="none" stroke="rgb(39,20,8)" stroke-width="0.9" opacity="0.14"/><path d="M -20 490.1 Q 40 490.4 80 490.1 Q 120 496.7 160 490.1 Q 200 484.3 240 490.1 Q 280 494.6 320 490.1 Q 360 492.6 400 490.1 Q 440 484.6 480 490.1 Q 520 497.0 560 490.1 Q 600 486.7 640 490.1 Q 680 491.5 720 490.1 Q 760 493.4 800 490.1 Q 840 485.5 880 490.1 Q 920 484.5 960 490.1 Q 1000 485.4 1040 490.1 Q 1080 494.6 1120 490.1" fill="none" stroke="rgb(210,156,92)" stroke-width="1.1" opacity="0.10"/><path d="M -20 416.1 Q 40 422.5 80 416.1 Q 120 410.2 160 416.1 Q 200 421.3 240 416.1 Q 280 422.5 320 416.1 Q 360 420.5 400 416.1 Q 440 409.2 480 416.1 Q 520 416.2 560 416.1 Q 600 422.9 640 416.1 Q 680 423.3 720 416.1 Q 760 413.4 800 416.1 Q 840 415.7 880 416.1 Q 920 423.1 960 416.1 Q 1000 418.1 1040 416.1 Q 1080 418.9 1120 416.1" fill="none" stroke="rgb(210,156,92)" stroke-width="2.2" opacity="0.06"/><path d="M -20 29.9 Q 40 23.6 80 29.9 Q 120 35.4 160 29.9 Q 200 33.5 240 29.9 Q 280 35.2 320 29.9 Q 360 30.5 400 29.9 Q 440 25.5 480 29.9 Q 520 25.2 560 29.9 Q 600 22.2 640 29.9 Q 680 26.4 720 29.9 Q 760 32.9 800 29.9 Q 840 34.8 880 29.9 Q 920 22.5 960 29.9 Q 1000 24.7 1040 29.9 Q 1080 24.9 1120 29.9" fill="none" stroke="rgb(39,20,8)" stroke-width="0.9" opacity="0.13"/><path d="M -20 300.8 Q 40 298.5 80 300.8 Q 120 296.8 160 300.8 Q 200 303.8 240 300.8 Q 280 302.1 320 300.8 Q 360 302.6 400 300.8 Q 440 302.2 480 300.8 Q 520 304.8 560 300.8 Q 600 300.5 640 300.8 Q 680 299.0 720 300.8 Q 760 296.5 800 300.8 Q 840 296.6 880 300.8 Q 920 296.1 960 300.8 Q 1000 304.7 1040 300.8 Q 1080 299.2 1120 300.8" fill="none" stroke="rgb(210,156,92)" stroke-width="1.2" opacity="0.08"/><path d="M -20 685.2 Q 40 691.2 80 685.2 Q 120 685.2 160 685.2 Q 200 680.2 240 685.2 Q 280 686.8 320 685.2 Q 360 692.7 400 685.2 Q 440 679.4 480 685.2 Q 520 687.4 560 685.2 Q 600 683.5 640 685.2 Q 680 682.1 720 685.2 Q 760 691.3 800 685.2 Q 840 680.9 880 685.2 Q 920 680.6 960 685.2 Q 1000 686.6 1040 685.2 Q 1080 688.6 1120 685.2" fill="none" stroke="rgb(39,20,8)" stroke-width="1.9" opacity="0.08"/><path d="M -20 295.1 Q 40 294.7 80 295.1 Q 120 290.0 160 295.1 Q 200 289.1 240 295.1 Q 280 296.8 320 295.1 Q 360 297.0 400 295.1 Q 440 294.0 480 295.1 Q 520 301.0 560 295.1 Q 600 289.4 640 295.1 Q 680 294.2 720 295.1 Q 760 297.8 800 295.1 Q 840 292.0 880 295.1 Q 920 299.7 960 295.1 Q 1000 290.6 1040 295.1 Q 1080 289.8 1120 295.1" fill="none" stroke="rgb(39,20,8)" stroke-width="2.3" opacity="0.12"/><path d="M -20 241.7 Q 40 243.4 80 241.7 Q 120 241.2 160 241.7 Q 200 245.7 240 241.7 Q 280 244.7 320 241.7 Q 360 238.4 400 241.7 Q 440 237.8 480 241.7 Q 520 238.5 560 241.7 Q 600 240.4 640 241.7 Q 680 246.6 720 241.7 Q 760 246.3 800 241.7 Q 840 245.1 880 241.7 Q 920 237.7 960 241.7 Q 1000 236.4 1040 241.7 Q 1080 244.2 1120 241.7" fill="none" stroke="rgb(210,156,92)" stroke-width="1.4" opacity="0.12"/><path d="M -20 599.6 Q 40 599.7 80 599.6 Q 120 598.3 160 599.6 Q 200 599.1 240 599.6 Q 280 602.3 320 599.6 Q 360 604.7 400 599.6 Q 440 605.9 480 599.6 Q 520 605.3 560 599.6 Q 600 595.1 640 599.6 Q 680 604.0 720 599.6 Q 760 602.5 800 599.6 Q 840 593.1 880 599.6 Q 920 595.6 960 599.6 Q 1000 602.9 1040 599.6 Q 1080 604.0 1120 599.6" fill="none" stroke="rgb(39,20,8)" stroke-width="1.0" opacity="0.12"/><path d="M -20 98.9 Q 40 102.4 80 98.9 Q 120 101.7 160 98.9 Q 200 97.6 240 98.9 Q 280 104.7 320 98.9 Q 360 103.4 400 98.9 Q 440 104.2 480 98.9 Q 520 96.2 560 98.9 Q 600 104.4 640 98.9 Q 680 104.0 720 98.9 Q 760 94.0 800 98.9 Q 840 98.9 880 98.9 Q 920 102.3 960 98.9 Q 1000 103.3 1040 98.9 Q 1080 98.0 1120 98.9" fill="none" stroke="rgb(39,20,8)" stroke-width="1.6" opacity="0.11"/><path d="M -20 645.6 Q 40 643.1 80 645.6 Q 120 639.7 160 645.6 Q 200 643.4 240 645.6 Q 280 642.5 320 645.6 Q 360 640.2 400 645.6 Q 440 642.5 480 645.6 Q 520 648.7 560 645.6 Q 600 641.7 640 645.6 Q 680 643.3 720 645.6 Q 760 639.6 800 645.6 Q 840 644.9 880 645.6 Q 920 640.9 960 645.6 Q 1000 644.9 1040 645.6 Q 1080 650.7 1120 645.6" fill="none" stroke="rgb(210,156,92)" stroke-width="2.3" opacity="0.10"/><path d="M -20 154.3 Q 40 153.8 80 154.3 Q 120 163.4 160 154.3 Q 200 155.9 240 154.3 Q 280 153.1 320 154.3 Q 360 154.4 400 154.3 Q 440 163.0 480 154.3 Q 520 152.0 560 154.3 Q 600 163.3 640 154.3 Q 680 154.3 720 154.3 Q 760 151.2 800 154.3 Q 840 149.2 880 154.3 Q 920 157.9 960 154.3 Q 1000 160.3 1040 154.3 Q 1080 163.5 1120 154.3" fill="none" stroke="rgb(210,156,92)" stroke-width="1.5" opacity="0.10"/><path d="M -20 723.6 Q 40 726.8 80 723.6 Q 120 726.1 160 723.6 Q 200 725.2 240 723.6 Q 280 727.1 320 723.6 Q 360 726.9 400 723.6 Q 440 721.0 480 723.6 Q 520 721.1 560 723.6 Q 600 725.8 640 723.6 Q 680 719.2 720 723.6 Q 760 727.9 800 723.6 Q 840 719.6 880 723.6 Q 920 719.5 960 723.6 Q 1000 721.3 1040 723.6 Q 1080 723.8 1120 723.6" fill="none" stroke="rgb(39,20,8)" stroke-width="1.8" opacity="0.14"/><path d="M -20 655.1 Q 40 658.6 80 655.1 Q 120 654.7 160 655.1 Q 200 656.7 240 655.1 Q 280 657.9 320 655.1 Q 360 658.1 400 655.1 Q 440 651.6 480 655.1 Q 520 656.4 560 655.1 Q 600 652.2 640 655.1 Q 680 653.2 720 655.1 Q 760 655.9 800 655.1 Q 840 651.6 880 655.1 Q 920 656.3 960 655.1 Q 1000 651.6 1040 655.1 Q 1080 656.6 1120 655.1" fill="none" stroke="rgb(39,20,8)" stroke-width="1.0" opacity="0.07"/><path d="M -20 216.6 Q 40 220.1 80 216.6 Q 120 216.2 160 216.6 Q 200 219.3 240 216.6 Q 280 218.6 320 216.6 Q 360 213.4 400 216.6 Q 440 212.2 480 216.6 Q 520 213.9 560 216.6 Q 600 218.4 640 216.6 Q 680 216.4 720 216.6 Q 760 219.9 800 216.6 Q 840 216.3 880 216.6 Q 920 216.7 960 216.6 Q 1000 217.4 1040 216.6 Q 1080 217.8 1120 216.6" fill="none" stroke="rgb(210,156,92)" stroke-width="2.4" opacity="0.11"/><g opacity="0.22"><ellipse cx="832.8" cy="474.6" rx="11.2" ry="6.7" fill="none" stroke="rgb(31,12,0)" stroke-width="2.4"/><ellipse cx="832.8" cy="474.6" rx="6.2" ry="3.7" fill="rgb(39,20,8)"/></g><g opacity="0.22"><ellipse cx="589.0" cy="347.0" rx="18.6" ry="11.1" fill="none" stroke="rgb(31,12,0)" stroke-width="2.4"/><ellipse cx="589.0" cy="347.0" rx="10.2" ry="6.1" fill="rgb(39,20,8)"/></g><g opacity="0.22"><ellipse cx="36.0" cy="521.7" rx="15.2" ry="9.1" fill="none" stroke="rgb(31,12,0)" stroke-width="2.4"/><ellipse cx="36.0" cy="521.7" rx="8.4" ry="5.0" fill="rgb(39,20,8)"/></g><polygon points="100,0 420,0 120,750 -180,750" fill="#ffffff" opacity="0.1"/><polygon points="600,0 720,0 460,750 340,750" fill="#ffffff" opacity="0.06"/><rect width="1000" height="750" fill="#f3e6cf" opacity="0.06"/><rect width="1000" height="750" fill="url(#lgg95)"/><rect width="1000" height="750" fill="url(#vgg95)"/></svg>